#N canvas 337 937 805 691 12;
#X obj 455 353 tabread4~ wind;
#X obj 455 378 +~ 0.5;
#X msg 454 304 512 \$1;
#X floatatom 400 234 5 0 0 0 - - -;
#X obj 408 547 del, f 4;
#X obj 455 330 line~;
#X msg 481 281 0;
#X obj 400 257 t b f f b, f 12;
#X obj 399 159 random;
#X floatatom 438 135 5 0 0 0 - - -;
#X obj 400 209 +;
#X floatatom 418 185 5 0 0 0 - - -;
#X text 460 184 time;
#X text 484 136 rnd time;
#X obj 450 435 random;
#X floatatom 489 411 5 0 0 0 - - -;
#X obj 451 485 +;
#X floatatom 469 461 5 0 0 0 - - -;
#X text 511 460 delay;
#X text 535 412 rnd delay;
#X obj 433 523 +;
#X obj 394 590 bng 15 250 50 0 empty empty empty 17 7 0 10 -262144
-1 -1;
#X obj 272 178 loadbang;
#X obj 275 261 t b b;
#X msg 306 286 1000;
#X obj 81 256 r vel;
#X obj 81 290 *, f 15;
#X obj 151 128 random;
#X obj 151 203 +;
#X floatatom 169 179 5 0 0 0 - - -;
#X obj 190 102 * 1000;
#X obj 152 153 / 1000;
#X floatatom 190 78 5 0 0 0 - - -;
#X text 231 78 rnd pitch;
#X text 214 185 pitch;
#X floatatom 150 228 5 0 0 0 - - -;
#X obj 150 252 t b f;
#X obj 83 372 phasor~;
#X obj 41 27 inlet~;
#X text 92 26 cue;
#X obj 128 345 snapshot~;
#X obj 84 508 *~;
#X obj 85 433 *~;
#X obj 104 403 r len;
#X obj 85 627 outlet~;
#X obj 159 29 inlet;
#X text 156 9 pitch;
#X obj 234 28 inlet;
#X text 231 8 pitch rnd;
#X obj 317 29 inlet;
#X obj 392 28 inlet;
#X text 314 9 time;
#X text 390 9 time rnd;
#X obj 476 27 inlet;
#X obj 551 26 inlet;
#X text 473 7 delay;
#X text 549 7 delay rnd;
#X obj 84 472 tabread4~ sound;
#X obj 326 348 t b b b b b;
#X obj 640 358 random 1000;
#X obj 639 388 / 1000;
#X obj 640 330 metro 100;
#X obj 639 420 -;
#X obj 639 446 *;
#X obj 640 476 +;
#X floatatom 717 417 5 0 0 0 - - -;
#X text 762 417 pan;
#X floatatom 722 449 5 0 0 0 - - -;
#X text 767 449 spread;
#X obj 86 569 *~;
#X obj 156 626 outlet~;
#X obj 157 568 *~;
#X obj 653 24 inlet;
#X obj 728 23 inlet;
#X text 650 4 pan;
#X text 726 4 spread;
#X obj 639 540 line~;
#X msg 639 507 \$1 10;
#X obj 637 566 expr~ 1- $v1;
#X connect 0 0 1 0;
#X connect 1 0 41 1;
#X connect 2 0 5 0;
#X connect 3 0 7 0;
#X connect 4 0 21 0;
#X connect 5 0 0 0;
#X connect 6 0 5 0;
#X connect 7 0 4 0;
#X connect 7 1 20 0;
#X connect 7 2 2 0;
#X connect 7 3 6 0;
#X connect 8 0 10 0;
#X connect 9 0 8 1;
#X connect 10 0 3 0;
#X connect 11 0 10 1;
#X connect 14 0 16 0;
#X connect 15 0 14 1;
#X connect 16 0 20 1;
#X connect 17 0 16 1;
#X connect 20 0 4 1;
#X connect 21 0 58 0;
#X connect 22 0 23 0;
#X connect 23 0 58 0;
#X connect 23 1 24 0;
#X connect 24 0 11 0;
#X connect 25 0 26 0;
#X connect 26 0 37 0;
#X connect 27 0 31 0;
#X connect 28 0 35 0;
#X connect 29 0 28 1;
#X connect 30 0 27 1;
#X connect 31 0 28 0;
#X connect 32 0 30 0;
#X connect 35 0 36 0;
#X connect 36 0 26 0;
#X connect 36 1 26 1;
#X connect 37 0 42 0;
#X connect 38 0 40 0;
#X connect 40 0 37 1;
#X connect 41 0 69 0;
#X connect 41 0 71 0;
#X connect 42 0 57 0;
#X connect 43 0 42 1;
#X connect 45 0 29 0;
#X connect 47 0 32 0;
#X connect 49 0 11 0;
#X connect 50 0 9 0;
#X connect 53 0 17 0;
#X connect 54 0 15 0;
#X connect 57 0 41 0;
#X connect 58 0 14 0;
#X connect 58 1 8 0;
#X connect 58 2 27 0;
#X connect 58 3 61 0;
#X connect 58 4 40 0;
#X connect 59 0 60 0;
#X connect 60 0 62 0;
#X connect 61 0 59 0;
#X connect 62 0 63 0;
#X connect 63 0 64 0;
#X connect 64 0 77 0;
#X connect 65 0 62 1;
#X connect 65 0 64 1;
#X connect 67 0 63 1;
#X connect 69 0 44 0;
#X connect 71 0 70 0;
#X connect 72 0 65 0;
#X connect 73 0 67 0;
#X connect 76 0 78 0;
#X connect 76 0 71 1;
#X connect 77 0 76 0;
#X connect 78 0 69 1;
